<?xml version="1.0" encoding="UTF-8" standalone="no"?>
<!-- Created with Inkscape (http://www.inkscape.org/) -->

<svg
   xmlns:dc="http://purl.org/dc/elements/1.1/"
   xmlns:cc="http://creativecommons.org/ns#"
   xmlns:rdf="http://www.w3.org/1999/02/22-rdf-syntax-ns#"
   xmlns:svg="http://www.w3.org/2000/svg"
   xmlns="http://www.w3.org/2000/svg"
   xmlns:sodipodi="http://sodipodi.sourceforge.net/DTD/sodipodi-0.dtd"
   xmlns:inkscape="http://www.inkscape.org/namespaces/inkscape"
   width="180"
   height="180"
   viewBox="0 0 180 180"
   id="svg5182"
   version="1.1"
   inkscape:version="0.91 r13725"
   sodipodi:docname="logo.svg">
  <defs
     id="defs5184" />
  <sodipodi:namedview
     id="base"
     pagecolor="#ffffff"
     bordercolor="#666666"
     borderopacity="1.0"
     inkscape:pageopacity="0.0"
     inkscape:pageshadow="2"
     inkscape:zoom="5.4154378"
     inkscape:cx="84.630305"
     inkscape:cy="81.601685"
     inkscape:document-units="px"
     inkscape:current-layer="g4522"
     showgrid="false"
     units="px"
     inkscape:window-width="3200"
     inkscape:window-height="1671"
     inkscape:window-x="0"
     inkscape:window-y="55"
     inkscape:window-maximized="1" />
  <metadata
     id="metadata5187">
    <rdf:RDF>
      <cc:Work
         rdf:about="">
        <dc:format>image/svg+xml</dc:format>
        <dc:type
           rdf:resource="http://purl.org/dc/dcmitype/StillImage" />
        <dc:title></dc:title>
      </cc:Work>
    </rdf:RDF>
  </metadata>
  <g
     inkscape:label="Layer 1"
     inkscape:groupmode="layer"
     id="layer1"
     transform="translate(0,-872.36216)" />
  <g
     inkscape:groupmode="layer"
     id="layer3"
     inkscape:label="node"
     style="display:inline"
     transform="translate(0,-40)" />
  <g
     inkscape:groupmode="layer"
     id="layer2"
     inkscape:label="arch"
     style="display:inline"
     transform="translate(0,-40)" />
  <g
     inkscape:groupmode="layer"
     id="layer4"
     inkscape:label="electron"
     style="display:inline"
     transform="translate(0,-40)">
    <g
       id="g4522"
       transform="translate(-19.867527,16.120031)">
      <g
         transform="translate(0,-817.36211)"
         id="g4155"
         style="display:inline;fill:#333333">
        <g
           style="fill:#333333"
           id="g20"
           transform="matrix(1.25,0,0,-1.25,109.9875,990.497)">
          <path
             d="m 0,-16 c -1.46,0 -2.912,0.381 -4.19,1.121 L -14.1975,-4.7845 -0.62,-8.665 c 0.371,-0.206 0.895,-0.206 1.237,0 l 39.95,23.058 c 0.372,0.212 0.61,0.64 0.61,1.081 l 0,46.104 c 0,0.451 -0.238,0.872 -0.62,1.101 L 0.624,85.717 c -0.369,0.216 -0.859,0.216 -1.231,0 L -40.53,62.672 c -0.388,-0.222 -0.634,-0.657 -0.634,-1.094 l -3.5825,-46.104 -3.5825,46.104 c 0,2.995 1.602,5.792 4.19,7.281 L -4.19,91.944 c 2.528,1.429 5.888,1.429 8.396,0 L 44.153,68.859 c 2.587,-1.496 4.196,-4.286 4.196,-7.281 l 0,-46.104 c 0,-2.995 -1.609,-5.782 -4.196,-7.288 L 4.206,-14.879 C 2.929,-15.619 1.48,-16 0,-16"
             style="fill:#333333;fill-opacity:1;fill-rule:nonzero;stroke:none"
             id="path22"
             inkscape:connector-curvature="0"
             sodipodi:nodetypes="ccccccssccccscsccccssccc" />
        </g>
      </g>
      <g
         id="g5147"
         style="display:inline;fill:#333333;fill-opacity:1"
         transform="translate(-629.43629,-45.43875)">
        <g
           style="fill:#333333;fill-opacity:1"
           id="layer1-9"
           transform="translate(263.65295,143.26415)">
          <g
             style="fill:#555555;fill-opacity:1"
             id="g2424"
             transform="matrix(0.8746356,0,0,0.8746356,14.730518,23.408954)">
            <path
               style="fill:#555555;fill-opacity:1;fill-rule:evenodd;stroke:none"
               id="path2518"
               d="m 526.96773,-107.80145 c -8.45708,20.73455 -13.55799,34.297378 -22.97385,54.415552 5.7731,6.11948 12.85931,13.24593 24.36729,21.29458 -12.37221,-5.09109 -20.81156,-10.20242 -27.11843,-15.50646 -12.05051,25.14523 -30.93018,60.963487 -69.24312,129.80405 30.11269,-17.38458 53.4555,-28.10236 75.20989,-32.19198 -0.93415,-4.01773 -1.46524,-8.36369 -1.42917,-12.89823 l 0.0357,-0.96468 c 0.47782,-19.292402 10.51371,-34.1282622 22.40218,-33.1209422 11.88848,1.00733 21.12927,17.4729002 20.65146,36.7653122 -0.0899,3.63022 -0.49934,7.12245 -1.21479,10.36146 21.51819,4.20934 44.61141,14.89968 74.31665,32.04906 -5.85726,-10.78369 -11.08541,-20.5044 -16.07809,-29.7624 -7.86429,-6.09534 -16.06714,-14.02846 -32.79937,-22.616551 11.50078,2.988381 19.73519,6.436181 26.15375,10.289991 -50.76203,-94.51002 -54.87267,-107.068446 -72.2801,-147.918762 z"
               inkscape:connector-curvature="0" />
          </g>
        </g>
        <g
           style="fill:#333333;fill-opacity:1"
           id="g5129"
           transform="translate(163.32164,-23.937813)" />
      </g>
      <path
         sodipodi:nodetypes="cssscc"
         inkscape:connector-curvature="0"
         class="hero-icon hero-icon-1  loop-3"
         d="m 165.00189,106.91442 c 7.681,0 13.9075,-6.207 13.9075,-13.8636 0,-7.65649 -6.2266,-13.86339 -13.9075,-13.86339 -7.681,0 -13.9076,6.20699 -13.9076,13.86339 0,7.6566 6.2266,13.8635 13.9076,13.8635 z"
         id="path38"
         style="fill:#333333;fill-opacity:1" />
      <path
         sodipodi:nodetypes="sssss"
         inkscape:connector-curvature="0"
         class="hero-icon hero-icon-3  loop-1"
         d="m 697.99942,138.48962 c 0,-7.6565 -6.2266,-13.86339 -13.9075,-13.86339 -7.681,0 -13.9075,6.20699 -13.9075,13.86339 0,7.6566 6.2266,13.8635 13.9075,13.8635 7.681,0 13.9075,-6.207 13.9075,-13.8635 z"
         id="path42-3"
         style="fill:#333333;fill-opacity:1"
         transform="translate(-629.43629,-45.43875)" />
      <path
         sodipodi:nodetypes="cssscc"
         inkscape:connector-curvature="0"
         class="hero-icon hero-icon-1  loop-3"
         d="m 110.00005,137.86349 c 7.681,0 13.9075,-6.207 13.9075,-13.8636 0,-7.65649 -6.2266,-13.86339 -13.9075,-13.86339 -7.681,0 -13.907599,6.20699 -13.907599,13.86339 0,7.6566 6.226599,13.8635 13.907599,13.8635 z"
         id="path38-8"
         style="display:inline;fill:#333333;fill-opacity:1" />
    </g>
  </g>
</svg>
