<?xml version="1.0" encoding="UTF-8" standalone="no"?>
<!-- Created with Inkscape (http://www.inkscape.org/) -->

<svg
   xmlns:dc="http://purl.org/dc/elements/1.1/"
   xmlns:cc="http://creativecommons.org/ns#"
   xmlns:rdf="http://www.w3.org/1999/02/22-rdf-syntax-ns#"
   xmlns:svg="http://www.w3.org/2000/svg"
   xmlns="http://www.w3.org/2000/svg"
   xmlns:sodipodi="http://sodipodi.sourceforge.net/DTD/sodipodi-0.dtd"
   xmlns:inkscape="http://www.inkscape.org/namespaces/inkscape"
   width="220"
   height="220"
   viewBox="0 0 220 220"
   id="svg5182"
   version="1.1"
   inkscape:version="0.91 r13725"
   sodipodi:docname="logo.svg">
  <defs
     id="defs5184" />
  <sodipodi:namedview
     id="base"
     pagecolor="#ffffff"
     bordercolor="#666666"
     borderopacity="1.0"
     inkscape:pageopacity="0.0"
     inkscape:pageshadow="2"
     inkscape:zoom="3.4137366"
     inkscape:cx="47.533437"
     inkscape:cy="114.35385"
     inkscape:document-units="px"
     inkscape:current-layer="layer1"
     showgrid="false"
     units="px"
     inkscape:window-width="3200"
     inkscape:window-height="1671"
     inkscape:window-x="0"
     inkscape:window-y="55"
     inkscape:window-maximized="1" />
  <metadata
     id="metadata5187">
    <rdf:RDF>
      <cc:Work
         rdf:about="">
        <dc:format>image/svg+xml</dc:format>
        <dc:type
           rdf:resource="http://purl.org/dc/dcmitype/StillImage" />
        <dc:title></dc:title>
      </cc:Work>
    </rdf:RDF>
  </metadata>
  <g
     inkscape:label="Layer 1"
     inkscape:groupmode="layer"
     id="layer1"
     transform="translate(0,-832.36216)">
    <g
       transform="translate(-629.43629,786.92341)"
       style="fill:#ff00ff"
       id="g5147">
      <g
         transform="translate(263.65295,143.26415)"
         id="layer1-9">
        <g
           transform="matrix(0.8746356,0,0,0.8746356,14.730518,23.408954)"
           id="g2424">
          <path
             inkscape:connector-curvature="0"
             d="m 526.96773,-107.80145 c -8.45708,20.73455 -13.55799,34.297378 -22.97385,54.415552 5.7731,6.11948 12.85931,13.24593 24.36729,21.29458 -12.37221,-5.09109 -20.81156,-10.20242 -27.11843,-15.50646 -12.05051,25.14523 -30.93018,60.963487 -69.24312,129.80405 30.11269,-17.38458 53.4555,-28.10236 75.20989,-32.19198 -0.93415,-4.01773 -1.46524,-8.36369 -1.42917,-12.89823 l 0.0357,-0.96468 c 0.47782,-19.292402 10.51371,-34.1282622 22.40218,-33.1209422 11.88848,1.00733 21.12927,17.4729002 20.65146,36.7653122 -0.0899,3.63022 -0.49934,7.12245 -1.21479,10.36146 21.51819,4.20934 44.61141,14.89968 74.31665,32.04906 -5.85726,-10.78369 -11.08541,-20.5044 -16.07809,-29.7624 -7.86429,-6.09534 -16.06714,-14.02846 -32.79937,-22.616551 11.50078,2.988381 19.73519,6.436181 26.15375,10.289991 -50.76203,-94.51002 -54.87267,-107.068446 -72.2801,-147.918762 z"
             id="path2518"
             style="fill:#1793d1;fill-opacity:1;fill-rule:evenodd;stroke:none" />
        </g>
      </g>
      <path
         style="fill:#1793d1;fill-opacity:1"
         id="path38"
         d="m 739.30387,86.353173 c 7.681,0 13.9075,-6.207 13.9075,-13.863599 0,-7.656499 -6.2266,-13.863398 -13.9075,-13.863398 -7.681,0 -13.9076,6.206999 -13.9076,13.863398 0,7.656599 6.2266,13.863499 13.9076,13.863499 z m 0,-5.7932 c -4.4713,0 -8.096,-3.613199 -8.096,-8.070399 0,-4.456999 3.6247,-8.070299 8.096,-8.070299 4.4712,0 8.096,3.6133 8.096,8.070399 0,4.4572 -3.6248,8.070399 -8.096,8.070399 z"
         class="hero-icon hero-icon-1  loop-3"
         inkscape:connector-curvature="0" />
      <path
         style="fill:#1793d1;fill-opacity:1"
         id="path42"
         d="m 835.99562,238.38782 c 0,-7.6565 -6.2266,-13.8634 -13.9075,-13.8634 -7.681,0 -13.9075,6.207 -13.9075,13.8634 0,7.6566 6.2266,13.8635 13.9075,13.8635 7.681,0 13.9075,-6.207 13.9075,-13.8635 z m -5.8115,0 c 0,4.4572 -3.6247,8.0704 -8.096,8.0704 -4.4713,0 -8.096,-3.6132 -8.096,-8.0704 0,-4.457 3.6247,-8.0703 8.096,-8.0703 4.4713,0 8.096,3.6132 8.096,8.0703 z"
         class="hero-icon hero-icon-3  loop-1"
         inkscape:connector-curvature="0" />
      <path
         style="fill:#1793d1;fill-opacity:1"
         id="path42-3"
         d="m 670.69197,238.38781 c 0,-7.6565 -6.2266,-13.86339 -13.9075,-13.86339 -7.681,0 -13.9075,6.20699 -13.9075,13.86339 0,7.6566 6.2266,13.8635 13.9075,13.8635 7.681,0 13.9075,-6.207 13.9075,-13.8635 z m -5.8115,0 c 0,4.4572 -3.6247,8.0704 -8.096,8.0704 -4.4713,0 -8.096,-3.6132 -8.096,-8.0704 0,-4.457 3.6247,-8.0703 8.096,-8.0703 4.4713,0 8.096,3.6132 8.096,8.0703 z"
         class="hero-icon hero-icon-3  loop-1"
         inkscape:connector-curvature="0" />
      <path
         style="fill:#333333;fill-opacity:1"
         id="path56-8"
         d="m 741.42807,82.293674 c -5.432,1.17 -10.7838,-2.271199 -11.9598,-7.685999 -1.1714,-5.415001 2.2785,-10.749801 7.7106,-11.922 5.432,-1.17 10.7838,2.271199 11.9598,7.686 1.1737,5.415 -2.2785,10.7498 -7.7106,11.922 z"
         class="hero-icon hero-icon-10 dot"
         inkscape:connector-curvature="0" />
      <path
         style="fill:#333333;fill-opacity:1"
         id="path56-8-5"
         d="m 824.21238,248.19187 c -5.432,1.17 -10.7838,-2.2712 -11.9598,-7.686 -1.1714,-5.415 2.2785,-10.7498 7.7106,-11.922 5.432,-1.17 10.7838,2.2712 11.9598,7.686 1.1737,5.415 -2.2785,10.7498 -7.7106,11.922 z"
         class="hero-icon hero-icon-10 dot"
         inkscape:connector-curvature="0" />
      <path
         style="fill:#333333;fill-opacity:1"
         id="path56-8-0"
         d="m 658.90873,248.19187 c -5.432,1.17 -10.7838,-2.2712 -11.9598,-7.686 -1.1714,-5.415 2.2785,-10.7498 7.7106,-11.922 5.432,-1.17 10.7838,2.2712 11.9598,7.686 1.1737,5.415 -2.2785,10.7498 -7.7106,11.922 z"
         class="hero-icon hero-icon-10 dot"
         inkscape:connector-curvature="0" />
      <g
         transform="translate(163.32164,-23.937813)"
         id="g5129">
        <path
           inkscape:connector-curvature="0"
           class="hero-icon hero-icon-3  loop-1"
           d="m 589.88968,195.41764 c 0,-7.6565 -6.2266,-13.8634 -13.9075,-13.8634 -7.681,0 -13.9075,6.207 -13.9075,13.8634 0,7.6566 6.2266,13.8635 13.9075,13.8635 7.681,0 13.9075,-6.207 13.9075,-13.8635 z m -5.8115,0 c 0,4.4572 -3.6247,8.0704 -8.096,8.0704 -4.4713,0 -8.096,-3.6132 -8.096,-8.0704 0,-4.457 3.6247,-8.0703 8.096,-8.0703 4.4713,0 8.096,3.6132 8.096,8.0703 z"
           id="path42-2"
           style="fill:#1793d1;fill-opacity:1" />
        <path
           inkscape:connector-curvature="0"
           class="hero-icon hero-icon-10 dot"
           d="m 578.10644,205.22169 c -5.432,1.17 -10.7838,-2.2712 -11.9598,-7.686 -1.1714,-5.415 2.2785,-10.7498 7.7106,-11.922 5.432,-1.17 10.7838,2.2712 11.9598,7.686 1.1737,5.415 -2.2785,10.7498 -7.7106,11.922 z"
           id="path56-8-5-0"
           style="fill:#333333;fill-opacity:1" />
      </g>
    </g>
  </g>
</svg>
