<?xml version="1.0" encoding="UTF-8" standalone="no"?>
<!-- Created with Inkscape (http://www.inkscape.org/) -->

<svg
   xmlns:dc="http://purl.org/dc/elements/1.1/"
   xmlns:cc="http://creativecommons.org/ns#"
   xmlns:rdf="http://www.w3.org/1999/02/22-rdf-syntax-ns#"
   xmlns:svg="http://www.w3.org/2000/svg"
   xmlns="http://www.w3.org/2000/svg"
   xmlns:sodipodi="http://sodipodi.sourceforge.net/DTD/sodipodi-0.dtd"
   xmlns:inkscape="http://www.inkscape.org/namespaces/inkscape"
   width="640"
   height="262"
   viewBox="0 0 639.99999 261.99999"
   id="svg4144"
   version="1.1"
   inkscape:version="0.91 r13725"
   inkscape:export-filename="/home/webreflection/Pictures/electron.png"
   inkscape:export-xdpi="90"
   inkscape:export-ydpi="90"
   sodipodi:docname="electron.svg">
  <defs
     id="defs4146" />
  <sodipodi:namedview
     id="base"
     pagecolor="#ffffff"
     bordercolor="#666666"
     borderopacity="1.0"
     inkscape:pageopacity="0.0"
     inkscape:pageshadow="2"
     inkscape:zoom="0.35"
     inkscape:cx="-570.71428"
     inkscape:cy="-134.28572"
     inkscape:document-units="px"
     inkscape:current-layer="layer1"
     showgrid="false"
     units="px"
     inkscape:window-width="3200"
     inkscape:window-height="1671"
     inkscape:window-x="0"
     inkscape:window-y="55"
     inkscape:window-maximized="1" />
  <metadata
     id="metadata4149">
    <rdf:RDF>
      <cc:Work
         rdf:about="">
        <dc:format>image/svg+xml</dc:format>
        <dc:type
           rdf:resource="http://purl.org/dc/dcmitype/StillImage" />
        <dc:title></dc:title>
      </cc:Work>
    </rdf:RDF>
  </metadata>
  <g
     inkscape:label="Layer 1"
     inkscape:groupmode="layer"
     id="layer1"
     transform="translate(0,-790.36229)">
    <g
       id="g6"
       style="fill:none;fill-rule:evenodd;stroke:none;stroke-width:1"
       transform="matrix(0.61713668,0,0,0.61713668,17.614547,875.2535)">
      <g
         transform="translate(-1,-1)"
         id="g8"
         style="fill:#47848f">
        <g
           transform="translate(204,36)"
           id="g10">
          <path
             d="m 3.34,85 53.926,0 c 1.534,0 2.832,-1.298 2.832,-2.832 0,-1.534 -1.298,-2.832 -2.832,-2.832 l -50.858,0 0,-33.158 44.958,0 c 1.534,0 2.832,-1.298 2.832,-2.832 0,-1.534 -1.298,-2.832 -2.832,-2.832 l -44.958,0 0,-32.45 50.268,0 c 1.534,0 2.832,-1.298 2.832,-2.832 C 59.508,3.698 58.21,2.4 56.676,2.4 L 3.34,2.4 C 1.688,2.4 0.272,3.816 0.272,5.468 l 0,76.464 C 0.272,83.584 1.688,85 3.34,85 l 0,0 z m 94.197708,-3.068 c 0,1.652 1.416,3.068 3.068002,3.068 l 49.206,0 c 1.534,0 2.832,-1.298 2.832,-2.832 0,-1.534 -1.298,-2.832 -2.832,-2.832 l -46.138,0 0,-74.34 c 0,-1.652 -1.416,-3.068 -3.068,-3.068 -1.652002,0 -3.068002,1.416 -3.068002,3.068 l 0,76.936 z M 191.85341,85 l 53.926,0 c 1.534,0 2.832,-1.298 2.832,-2.832 0,-1.534 -1.298,-2.832 -2.832,-2.832 l -50.858,0 0,-33.158 44.958,0 c 1.534,0 2.832,-1.298 2.832,-2.832 0,-1.534 -1.298,-2.832 -2.832,-2.832 l -44.958,0 0,-32.45 50.268,0 c 1.534,0 2.832,-1.298 2.832,-2.832 0,-1.534 -1.298,-2.832 -2.832,-2.832 l -53.336,0 c -1.652,0 -3.068,1.416 -3.068,3.068 l 0,76.464 c 0,1.652 1.416,3.068 3.068,3.068 l 0,0 z m 131.60371,1.416 c 13.806,0 22.892,-5.074 31.27,-12.862 0.472,-0.472 0.944,-1.18 0.944,-2.124 0,-1.534 -1.416,-2.95 -2.95,-2.95 -0.944,0 -1.652,0.472 -2.124,0.944 -7.788,7.434 -15.694,11.446 -26.904,11.446 -19.706,0 -34.928,-16.284 -34.928,-37.17 l 0,-0.236 c 0,-20.768 14.986,-36.934 34.81,-36.934 11.564,0 19.47,4.484 26.314,10.738 0.472,0.472 1.298,0.826 2.124,0.826 1.652,0 3.186,-1.416 3.186,-3.068 0,-1.062 -0.59,-1.888 -1.18,-2.478 -8.024,-6.844 -16.638,-11.564 -30.326,-11.564 -23.836,0 -41.3,19.352 -41.3,42.716 l 0,0.236 c 0,23.718 17.464,42.48 41.064,42.48 l 0,0 z m 90.77571,-4.012 c 0,1.652 1.416,3.068 3.068,3.068 1.652,0 3.068,-1.416 3.068,-3.068 l 0,-74.34 26.432,0 c 1.534,0 2.832,-1.298 2.832,-2.832 0,-1.534 -1.298,-2.832 -2.832,-2.832 l -59,0 c -1.534,0 -2.832,1.298 -2.832,2.832 0,1.534 1.298,2.832 2.832,2.832 l 26.432,0 0,74.34 z m 71.77771,0 c 0,1.652 1.416,3.068 3.068,3.068 1.652,0 3.068,-1.416 3.068,-3.068 l 0,-31.624 27.022,0 25.37,33.04 c 0.708,0.944 1.534,1.652 2.714,1.652 1.652,0 3.186,-1.534 3.186,-3.186 0,-0.708 -0.354,-1.416 -0.944,-2.124 l -23.482,-30.444 c 13.924,-1.888 24.19,-9.794 24.19,-23.6 l 0,-0.236 c 0,-5.9 -2.36,-11.446 -6.254,-15.34 -4.956,-4.956 -13.098,-8.142 -23.246,-8.142 l -31.624,0 c -1.652,0 -3.068,1.416 -3.068,3.068 l 0,76.936 z m 6.136,-37.17 0,-37.17 28.202,0 c 14.986,0 23.718,6.962 23.718,18.054 l 0,0.236 c 0,11.918 -10.266,18.88 -24.072,18.88 l -27.848,0 z m 135.14371,41.182 c 25.01599,0 41.654,-20.178 41.654,-42.716 l 0,-0.236 c 0,-22.538 -16.40201,-42.48 -41.418,-42.48 -25.016,0 -41.654,20.178 -41.654,42.716 l 0,0.236 c 0,22.538 16.40199,42.48 41.418,42.48 l 0,0 z m 0.236,-5.546 c -20.414,0 -35.28201,-16.756 -35.28201,-37.17 l 0,-0.236 c 0,-20.414 14.63201,-36.934 35.04601,-36.934 20.414,0 35.28199,16.756 35.28199,37.17 l 0,0.236 c 0,20.414 -14.632,36.934 -35.04599,36.934 l 0,0 z m 80.5097,1.652 c 0,1.652 1.298,2.95 2.95,2.95 1.652,0 2.95,-1.298 2.95,-2.95 l 0,-71.154 56.758,71.98 c 0.944,1.18 1.888,2.006 3.068,2.006 l 0.472,0 c 1.416,0 2.478,-1.18 2.478,-2.596 l 0,-77.88 c 0,-1.652 -1.298,-2.95 -2.95,-2.95 -1.652,0 -2.95,1.298 -2.95,2.95 l 0,69.62 -55.696,-70.682 c -0.826,-1.062 -1.77,-1.77 -3.068,-1.77 l -0.944,0 c -1.652,0 -3.068,1.416 -3.068,3.068 l 0,77.408 z"
             id="path12"
             inkscape:connector-curvature="0" />
        </g>
        <g
           transform="translate(0.699997,0.400002)"
           id="g14">
          <path
             d="m 49.126612,32.767821 c -19.50411,-3.55235 -34.925236,0.165662 -41.0713651,10.81107 -4.5863792,7.943841 -3.2753999,18.476052 3.1793861,29.734338 0.549398,0.958246 1.771585,1.289684 2.729831,0.740286 0.958247,-0.549397 1.289684,-1.771584 0.740286,-2.729831 C 8.8902049,61.182091 7.7587793,52.092388 11.519349,45.578891 c 5.105615,-8.843186 18.860993,-12.159588 36.89052,-8.875809 1.086693,0.197923 2.128079,-0.522567 2.326002,-1.609259 0.197923,-1.086693 -0.522567,-2.128079 -1.609259,-2.326002 l 0,0 z M 21.377419,86.997598 c 7.886374,8.666541 18.132091,16.795322 29.816755,23.541462 28.292564,16.33472 58.411996,20.70079 73.256106,10.57924 0.91261,-0.62227 1.14797,-1.86654 0.5257,-2.77915 -0.62227,-0.9126 -1.86653,-1.14797 -2.77914,-0.5257 -13.2853,9.05867 -41.896578,4.91122 -69.002666,-10.73849 C 41.858736,100.53044 31.937517,92.659114 24.335871,84.305468 23.592459,83.488514 22.327534,83.428896 21.51058,84.172307 c -0.816954,0.743412 -0.876572,2.008337 -0.133161,2.825291 l 0,0 z"
             id="path16"
             inkscape:connector-curvature="0" />
          <path
             d="m 119.71503,84.564556 c 12.77082,-15.086728 17.22994,-30.260584 11.09647,-40.884071 -4.51312,-7.816962 -14.054,-11.94399 -26.73367,-12.108891 -1.10448,-0.01436 -2.01147,0.869347 -2.02584,1.973823 -0.0144,1.104476 0.86935,2.011475 1.97382,2.025839 11.40377,0.148307 19.62343,3.703827 23.32159,10.109229 5.09458,8.824076 1.11803,22.355778 -10.68541,36.299698 -0.71365,0.843072 -0.60874,2.105049 0.23433,2.818703 0.84308,0.713655 2.10505,0.608742 2.81871,-0.23433 l 0,0 z M 86.894173,33.433796 C 75.347248,35.907775 63.056587,40.744903 51.252829,47.559806 22.0461,64.422319 2.9938875,89.286699 5.6399215,107.31563 c 0.1603949,1.09286 1.1763604,1.84877 2.2692224,1.68838 1.0928619,-0.1604 1.8487757,-1.17636 1.6883808,-2.26922 C 7.2481256,90.726999 25.307756,67.158003 53.252829,51.023907 64.703412,44.41291 76.604054,39.729279 87.732172,37.345031 c 1.080058,-0.231407 1.768025,-1.29456 1.536618,-2.374617 -0.231407,-1.080058 -1.294559,-1.768025 -2.374617,-1.536618 l 0,0 z"
             id="path18"
             inkscape:connector-curvature="0" />
          <path
             d="m 39.578157,119.81497 c 6.677179,18.64509 17.60104,30.12475 29.884545,30.12475 8.95859,0 17.247042,-6.10679 23.710329,-16.85826 0.569099,-0.94668 0.263011,-2.17546 -0.683667,-2.74456 -0.946678,-0.5691 -2.175459,-0.26301 -2.744558,0.68367 -5.808546,9.66233 -12.943378,14.91915 -20.282104,14.91915 -10.2036,0 -19.94672,-10.23885 -26.118745,-27.47336 -0.372408,-1.0399 -1.517307,-1.581 -2.557205,-1.2086 -1.039897,0.37241 -1.581003,1.51731 -1.208595,2.55721 l 0,0 z m 60.991143,-3.64719 c 3.45665,-11.04614 5.31315,-23.788874 5.31315,-37.067549 0,-33.134077 -11.596775,-61.696897 -28.114845,-69.031422 -1.009524,-0.4482591 -2.19129,0.0067 -2.639549,1.016259 -0.448259,1.009523 0.0067,2.19129 1.016259,2.639549 14.732122,6.541509 25.738135,33.649285 25.738135,65.375614 0,12.882477 -1.79787,25.222829 -5.1306,35.872959 -0.329877,1.05416 0.257272,2.17615 1.311433,2.50602 1.05416,0.32988 2.176147,-0.25727 2.506017,-1.31143 l 0,0 z"
             id="path20"
             inkscape:connector-curvature="0" />
          <path
             d="m 138.23701,114.20837 c 0,-5.28666 -4.28569,-9.57234 -9.57234,-9.57234 -5.28666,0 -9.57235,4.28568 -9.57235,9.57234 0,5.28666 4.28569,9.57235 9.57235,9.57235 5.28665,0 9.57234,-4.28569 9.57234,-9.57235 l 0,0 z m -4,0 c 0,3.07752 -2.49482,5.57235 -5.57234,5.57235 -3.07752,0 -5.57235,-2.49483 -5.57235,-5.57235 0,-3.07752 2.49483,-5.57234 5.57235,-5.57234 3.07752,0 5.57234,2.49482 5.57234,5.57234 l 0,0 z"
             id="path22"
             inkscape:connector-curvature="0" />
          <path
             d="m 10.123062,123.78072 c 5.28666,0 9.572344,-4.28569 9.572344,-9.57235 0,-5.28666 -4.285684,-9.57234 -9.572344,-9.57234 -5.2866595,0 -9.57234396,4.28568 -9.57234396,9.57234 0,5.28666 4.28568446,9.57235 9.57234396,9.57235 l 0,0 z m 0,-4 c -3.0775205,0 -5.572344,-2.49483 -5.572344,-5.57235 0,-3.07752 2.4948235,-5.57234 5.572344,-5.57234 3.077521,0 5.572344,2.49482 5.572344,5.57234 0,3.07752 -2.494823,5.57235 -5.572344,5.57235 l 0,0 z"
             id="path24"
             inkscape:connector-curvature="0" />
          <path
             d="m 69.462702,19.833083 c 5.28666,0 9.572344,-4.285684 9.572344,-9.572344 0,-5.2866596 -4.285684,-9.57234408 -9.572344,-9.57234408 -5.286659,0 -9.572344,4.28568448 -9.572344,9.57234408 0,5.28666 4.285685,9.572344 9.572344,9.572344 l 0,0 z m 0,-4 c -3.07752,0 -5.572344,-2.494823 -5.572344,-5.572344 0,-3.0775206 2.494824,-5.5723441 5.572344,-5.5723441 3.077521,0 5.572344,2.4948235 5.572344,5.5723441 0,3.077521 -2.494823,5.572344 -5.572344,5.572344 l 0,0 z"
             id="path26"
             inkscape:connector-curvature="0" />
          <path
             d="m 70.924806,85.869678 c -3.738846,0.807844 -7.422361,-1.56826 -8.231786,-5.307107 -0.806263,-3.738847 1.56826,-7.422362 5.307107,-8.231787 3.738847,-0.807843 7.422362,1.568261 8.231787,5.307108 0.807843,3.738846 -1.568261,7.422361 -5.307108,8.231786 z"
             id="path28"
             inkscape:connector-curvature="0" />
        </g>
      </g>
    </g>
  </g>
</svg>
